<svg width="366" height="148" fill="none" xmlns="http://www.w3.org/2000/svg"><path fill-rule="evenodd" clip-rule="evenodd" d="M281.005 16.204c1.575-2.328 4.224-5.125 5.537-5.845 1.098-.602 2.622-.445 4.43.456 3.623 1.805 12.646 10.055 20.542 18.78 6.084 6.725 18.015 18.795 18.936 19.158.422.167 2.925.39 5.561.497 5.005.204 7.121.526 8.621 1.314 1.277.67 2.9 2.484 6.354 7.096 1.665 2.225 3.279 4.253 3.586 4.507.307.255.558.903.558 1.441 0 .974-.005.976-.988.468-.544-.281-1.719-1.52-2.612-2.754-4.195-5.793-5.779-7.72-7.137-8.686l-1.468-1.043h-5.947c-4.238 0-6.332-.135-7.286-.472-1.08-.38-2.945-.43-9.606-.253-4.546.12-9.328.364-10.625.54-3.292.448-14.943.84-16.467.554-1.333-.25-2.346-1.576-1.698-2.224.266-.266 13.497-.443 21.03-.281 5.284.114 15.166-.123 15.166-.364 0-.368-7.115-7.23-8.305-8.01-.875-.574-2.422-.618-25.071-.714-8.898-.038-14.366-.118-17.766-.168-5.337-.078-5.578-.082-5.986.27-.215.186-.446.965-.723 1.896-.222.746-.472 1.59-.767 2.305-2.669 6.486-5.781 11.456-10.022 14.904-6.066 4.932-12.592 8.357-20.007 10.497l-2.851.823 4.209.22c3.722.194 29.277.49 95.294 1.103l19.633.182V73.988l-10.701.1c-16.552.156-47.321-.003-82.793-.429-26.586-.319-32.468-.309-33.147.055-.455.243-1.273 1.327-1.819 2.41-1.45 2.872-7.637 11.922-8.846 12.939l-1.037.872-26.042-.249-26.043-.249-.022.795c-.052 1.896-.108 3.762-.165 5.523.157-.015.324-.023.501-.023h15.013c1.064 0 1.625.72 1.682 2.157.058 1.467-.503 2.201-1.682 2.201h-12.64v25.582h13.416c1.065 0 1.611.705 1.64 2.114.057 1.496-.489 2.244-1.64 2.244h-15.789c-1.064 0-1.783-.274-2.157-.82a3.136 3.136 0 0 1-.561-1.812V98.321c0-.415.073-.802.22-1.16l.202-7.659-12.575.089-12.575.088-.169 3.876-.094 2.177h11.15c.748 0 1.524.159 2.33.475.805.316 1.581.719 2.329 1.208h-.043c.748.546 1.323 1.265 1.726 2.157.402.863.604 1.869.604 3.02v6.298c0 2.33-.777 4.07-2.33 5.221a9.12 9.12 0 0 1-1.035.647c-.345.201-.705.402-1.079.604l6.903 11.389c.086.144.172.331.259.561.086.23.129.417.129.561 0 .69-.489 1.351-1.467 1.984v-.043c-.661.403-1.222.604-1.682.604-.662 0-1.194-.331-1.597-.992l.044.043-8.154-13.676h-3.322c-.489 0-.877-.187-1.165-.561-.259-.402-.388-.934-.388-1.596 0-1.467.604-2.2 1.812-2.2h5.047c1.065 0 1.812-.302 2.244-.906a3.345 3.345 0 0 0 .647-1.985v-5.565c0-.719-.216-1.38-.647-1.984-.432-.604-1.179-.906-2.244-.906h-9.102v28.128c0 1.38-.849 2.071-2.546 2.071-1.697 0-2.545-.691-2.545-2.071V98.321c0-1.035.259-1.726.776-2.07a3.367 3.367 0 0 1 1.418-.489V89.589l-9.521-.204a4621.37 4621.37 0 0 0-23.071-.41l-13.55-.208-.656 1.08c-.362.594-1.522 3.188-2.58 5.765l-.05.121h4.199c.719 0 1.481.159 2.286.475.806.316 1.582.719 2.33 1.208h-.043c.748.546 1.323 1.265 1.725 2.157.403.863.605 1.869.605 3.02v7.808c0 2.33-.777 4.07-2.33 5.221a9.465 9.465 0 0 1-2.287 1.251 6.57 6.57 0 0 1-2.286.431h-5.954c-.489 0-.877-.187-1.164-.561-.26-.402-.389-.935-.389-1.596 0-1.467.604-2.2 1.812-2.2h4.573c1.064 0 1.812-.302 2.243-.906.46-.604.69-1.266.69-1.985v-7.075c0-.719-.23-1.38-.69-1.984-.43-.604-1.179-.906-2.243-.906h-9.06v28.171c0 1.38-.862 2.071-2.588 2.071-1.668 0-2.502-.691-2.502-2.071v-29.94c0-1.035.259-1.726.776-2.07.518-.346 1.15-.519 1.899-.519h6.97c.17-.524.376-1.132.624-1.836 1.421-4.04 1.593-4.784 1.147-4.955-.29-.111-3.403-.12-6.919-.02-6.978.197-8.147.034-11.48-1.6-4.62-2.263-8.065-5.673-24.69-24.437-7.541-8.512-20.624-22.363-22.93-24.276-2.403-1.995-4.854-3.684-8.168-5.633C10.32 31.925 10 31.593 10 30.795c0-.517.101-.94.225-.94.414 0 5.963 3.098 8.36 4.668 3.316 2.17 16.295 15.348 22.957 23.306a312.505 312.505 0 0 0 6.102 7.025c1.727 1.918 3.708 4.225 4.403 5.126 1.256 1.63 2.088 2.202 1.567 1.078-.15-.325-.293-7.415-.317-15.757l-.044-15.167-9.837-.09-9.836-.088-.337.886c-.185.488-.259 1.665-.163 2.617.149 1.487.125 1.588-.172.72-.534-1.561-.485-5.567.083-6.91 1.79-4.227 10.796-12.664 16.684-15.63 2.973-1.496 5.484-1.087 5.494.896.002.51-.05.895.09 1.187.47.981 3.101.926 17.181 1.024 11.864.082 17.042.004 18.076-.274.983-.265 2.135-1.03 3.586-2.38 1.176-1.093 2.565-2.082 3.086-2.197.522-.114 1.146-.27 1.387-.345.242-.075.668.28.947.787.28.507 1.884 3.501 3.566 6.652 3.863 7.238 5.341 9.367 7.241 10.43l1.482.828 11.568.025c8.99.019 11.643-.071 11.908-.405.188-.236.442-.987.565-1.67.633-3.517 4.664-9.07 7.839-10.798l1.651-.899 28.386-.103 28.452-.104c.036 0 .15 3.034.252 6.741l.187 6.74 2.359.212c1.298.116 10.474.223 20.391.237l18.032.027 2.012-2.596c3.055-3.943 7.87-10.751 10.033-14.188l1.934-3.071h1.532c.438 0 .751-.032 1.025.056.847.27 1.328 1.687 4.016 8.742 2.364 6.205 3.793 9.402 4.203 9.402.373 0 4.355-6.208 8.12-12.66 1.723-2.954 3.852-6.433 4.729-7.73Zm7.611 19.127c-.119-1.622-.318-7.385-.441-12.807-.161-7.042-.309-9.499.467-9.837.48-.209 1.313.393 2.715 1.223 4.389 2.596 10.402 8.09 16.577 15.145 1.926 2.2 4.647 5.177 6.045 6.613l2.544 2.612h-27.69l-.217-2.949Zm-8.975-13.4c1.446-2.412 3.262-5.105 4.035-5.983.774-.879 1.532-1.598 1.685-1.598.421 0 .825 7.33 1.096 19.886l.083 3.876-2.234.168c-1.229.093-4.975.093-8.325 0l-6.089-.168 3.559-5.898c1.958-3.244 4.743-7.872 6.19-10.284Zm-31.038 11.975c1.469-1.844 4.296-5.633 6.282-8.421 1.986-2.787 3.722-5.068 3.859-5.068s.819 1.326 1.515 2.947c1.195 2.78 5.491 13.717 5.65 14.381.043.181-4.101.301-10.038.291-7.328-.012-10.087-.122-10.025-.397.048-.21 1.288-1.89 2.757-3.733Zm-156.7-8.097c.847-.228 2.056-1.035 3.282-2.19 1.067-1.006 2.092-1.834 2.277-1.841.185-.007 1.626 2.284 3.202 5.091 1.576 2.807 3.733 6.45 4.794 8.096l1.93 2.99-25.421-.09c-19.632-.07-25.517-.185-25.838-.507-.281-.28-.481-2.305-.617-6.235-.11-3.2-.14-5.895-.069-5.987.072-.093.36.172.64.59.432.64.814.758 2.472.758 1.12 0 2.065.167 2.202.39.178.286 2.235.326 7.856.148 4.189-.132 8.753-.226 10.143-.21 3.524.042 11.536-.569 13.148-1.003ZM38.27 33.2c3.967-4.166 7.643-7.082 11.732-9.307 1.427-.776 2.701-1.346 2.831-1.266.13.08.332 2.536.449 5.457.116 2.92.296 6.258.4 7.417l.187 2.106h-9.632c-5.298 0-9.633-.125-9.633-.277 0-.153 1.65-2.01 3.666-4.13Zm99.351 3.466c.129-2.79 3.994-7.98 6.969-9.36l1.631-.754 26.949.047c26.703.048 26.95.055 27.082.726.073.372.219 2.915.324 5.65l.192 4.973-31.599-.086-31.599-.086.051-1.11ZM55.889 70.791c-.463-.425-.698-9.257-.51-19.113l.224-11.712 39.804.09 39.804.09.012 3.145.013 3.145-2.54 2.374c-1.398 1.306-4.74 4.133-7.428 6.283-10.365 8.29-15.512 11.442-21.268 13.023-1.742.478-3.827 1.17-4.633 1.538-.806.368-2.398.893-3.538 1.168-2.813.678-16.846 1.272-23.982 1.015-5.927-.213-15.753-.857-15.958-1.046Zm81.656-6.528c.099-16.037.255-23.108.52-23.603l.378-.707 29.055.038c15.98.021 30.116.138 31.413.26l2.36.22.168 7.247c.117 5.015.247 6.739.421 5.598.14-.907.254-2.954.255-4.55.001-1.596.1-4.16.22-5.696l.217-2.794 10.55.097c7.478.07 10.663.213 10.942.492.3.3-.072 1.012-1.562 2.992-2.115 2.81-5.483 5.859-9.752 8.829-4.086 2.843-8.028 6.256-9.429 8.165-1.274 1.736-3.213 5.945-3.881 8.426l-.366 1.36h-36.362l-.091 8.173-.09 8.173-12.553.088-12.554.088.141-22.896ZM226.17 41.01c.265-.22 3.206-.396 7.651-.458 3.971-.055 12.309-.08 20.197-.09 1.77-.003 3.517-.209 5.17-.403 3.079-.362 5.832-.685 7.806.411.967.538.568 1.54.135 2.624-.187.468-.38.952-.472 1.42-.685 3.485-1.706 4.905-3.84 7.876-.278.387-.575.8-.892 1.248-4.114 5.8-12.828 11.382-23.074 14.78-2.503.829-5.84 1.673-7.415 1.874-1.768.227-7.962.33-16.178.271l-13.313-.096.035-1.854c.027-1.406.323-2.423 1.228-4.213 1.631-3.226 3.314-5.024 7.936-8.479 2.17-1.622 4.732-3.536 5.694-4.253 2.539-1.895 6.658-6.326 7.862-8.458.572-1.013 1.233-2.003 1.47-2.2ZM109.09 68.61c5.764-2.883 17.092-11.345 22.683-16.944l3.101-3.105.278 18.986c.153 10.442.187 19.224.075 19.517-.182.473-1.145.509-8.671.322-8.201-.204-8.493-.235-9.31-.98-1.503-1.374-10.855-16.254-10.442-16.616.052-.046 1.081-.577 2.286-1.18Zm182.211-3.41c-.836-1.194-.669-1.59.718-1.705 2.671-.22 13.081-.09 13.482.169.459.297.574 1.45.168 1.69-.139.082-3.306.256-7.037.388l-6.785.237-.546-.779ZM94.908 76.44c2.182-3.4 3.217-4.348 5.806-5.31 1.177-.437 2.326-.802 2.552-.812 1.098-.047 3.701 3.259 7.682 9.757l4.233 6.909-8.859.105c-10.532.124-16.443-.148-16.443-.758 0-.715 3.276-7.158 5.029-9.891Zm-27.442 8.195c-2.692-1.323-5.311-3.594-10.061-8.726-1.826-1.972-3.115-3.584-2.865-3.58.25.004 2.73.309 5.51.677 8.751 1.16 27.984 1.22 34.547.108l1.18-.2-.89.968c-1.086 1.182-4.127 6.44-6.032 10.43l-1.405 2.945-6.797-.22c-7.547-.243-9.526-.603-13.188-2.402Zm97.404-11.47 1.854-.217c1.468-.173 32.752-.01 32.9.17.021.026.141 3.289.266 7.251l.229 7.204-17.456-.243c-9.601-.134-17.573-.354-17.716-.488-.143-.134-.219-3.266-.168-6.96l.091-6.717Zm37.455 13.734c-.094-.324-.276-3.585-.405-7.246l-.233-6.656h12.683c7.529 0 12.684.126 12.684.31 0 .172-.352.74-.783 1.265-.431.524-1.91 2.62-3.286 4.659-1.377 2.038-3.507 4.73-4.734 5.982l-2.231 2.276h-6.762c-6.15 0-6.778-.053-6.933-.59Zm83.182-2.282c3.029-.79 5.036-2.053 7.576-4.77 1.487-1.592 2.565-2.469 3.035-2.469 1.021 0 5.368 4.265 14.942 14.661 4.439 4.82 9.522 10.098 11.296 11.73 3.186 2.93 3.727 3.261 10.418 6.359 2.75 1.274 3.096 2.116 4.359 10.624 1.254 8.439 1.728 9.828 4.052 11.859.769.672 2.287 1.558 3.374 1.969 1.989.753 7.44 1.777 9.475 1.779.944.001 1.096.118 1.096.844 0 .272.003.47-.089.6-.245.348-1.167.219-4.63-.248-7.069-.953-10.789-2.819-13.861-6.949-.954-1.284-1.833-2.335-1.954-2.335-.12 0-1.957 1.086-4.082 2.413-5.273 3.292-10.427 5.982-12.548 6.549-1.725.46-1.81.448-3.787-.535-1.112-.552-3.311-2.15-4.887-3.549-1.575-1.4-3.524-3.012-4.33-3.581l-1.465-1.037-4.601.34c-5.284.39-5.632.297-7.628-2.023-.681-.793-2.661-3.792-4.399-6.666-3.689-6.099-5.698-8.741-7.608-10.005-1.175-.778-1.821-.934-4.379-1.056-2.661-.127-3.001-.215-3.001-.776 0-.574.293-.633 3.136-.633 2.705 0 3.378.121 4.903.881 2.097 1.045 4.476 3.836 7.148 8.387 2.857 4.866 5.346 8.513 6.435 9.429 1.14.96 2.647 1.071 6.944.513 1.425-.185 2.77-.194 3.224-.021.968.367 4.55 3.096 8.293 6.317 3.694 3.179 4.103 3.313 6.63 2.176 1.871-.842 4.289-2.159 6.202-3.378.464-.295 2.511-1.495 4.55-2.666 3.473-1.994 3.811-2.118 5.342-1.953 1.565.169 1.626.144 1.443-.587-.105-.42-.426-2.349-.711-4.286-1.091-7.397-1.749-9.725-2.974-10.52-.407-.264-1.726-.809-2.931-1.21-3.015-1.003-5.167-2.308-7.807-4.732-2.296-2.109-9.762-10.11-17.017-18.236-2.235-2.502-5.075-5.438-6.312-6.524l-2.249-1.974-2.669 2.55c-1.531 1.462-3.537 2.988-4.706 3.578-4.015 2.027-4.935 2.13-19.571 2.198-7.322.034-18.375-.08-24.563-.253-9.228-.26-11.261-.354-11.707.442-.146.26-.122.613-.125 1.087-.003.514-.513 1.955-1.134 3.202a62.64 62.64 0 0 0-2.029 4.626c-1.085 2.843-2.593 5.637-3.137 5.811-.255.082-.17-.468.239-1.546.35-.92 1.423-4.894 2.384-8.832l1.748-7.158 10.315.215 20.594.428c11.127.23 20.368-.182 23.738-1.06ZM67.923 128.175c0 1.38-.862 2.07-2.588 2.07-1.697 0-2.545-.69-2.545-2.07V97.587c0-1.38.848-2.07 2.545-2.07 1.726 0 2.588.69 2.588 2.07v30.588Zm-31.69-28.085c-1.007 0-1.54-.734-1.597-2.2 0-1.439.532-2.158 1.596-2.158h18.94c.949 0 1.682.159 2.2.475.517.288.805.69.862 1.208.03.489.015.963-.043 1.424-.028.431-.13.762-.302.992l-16.997 25.841h15.617c1.064 0 1.596.705 1.596 2.114.058 1.496-.474 2.244-1.596 2.244H37.18c-1.898 0-2.919-.576-3.063-1.726a5.19 5.19 0 0 1 0-1.337c.058-.432.173-.763.346-.993.517-.805 1.05-1.639 1.596-2.502l1.898-2.847c.69-1.035 1.453-2.2 2.287-3.495l2.933-4.4c1.093-1.668 2.315-3.538 3.667-5.608 1.38-2.071 2.934-4.415 4.66-7.032H36.231Zm78.723-.13-9.448 28.991v-.043a2.882 2.882 0 0 1-.734 1.079c-.287.258-.647.388-1.078.388-.23 0-.46-.029-.69-.086a6.4 6.4 0 0 1-.648-.13h.044c-1.64-.518-2.244-1.438-1.812-2.761l9.836-29.897c.144-.46.388-.848.733-1.165a2.397 2.397 0 0 1 1.295-.56c.488-.087.963-.144 1.423-.173.46-.057.82-.086 1.079-.086s.618.029 1.078.086c.46.029.935.072 1.424.13.403.057.791.273 1.165.646.402.374.704.748.906 1.122l4.875 14.97a2287.81 2287.81 0 0 1 4.918 14.927c.402 1.323-.202 2.243-1.812 2.761-.23.058-.446.101-.647.13a1.93 1.93 0 0 1-.604.086c-.403 0-.777-.13-1.122-.388a2.505 2.505 0 0 1-.69-1.079v.043l-9.491-28.99Zm3.235 19.673c0 .92-.33 1.711-.992 2.372-.633.633-1.409.95-2.33.95-.92 0-1.696-.317-2.329-.95a3.31 3.31 0 0 1-.949-2.372c0-.921.316-1.697.949-2.33a3.1 3.1 0 0 1 2.329-.992 3.1 3.1 0 0 1 2.33.992c.662.633.992 1.409.992 2.33Zm60.242-7.464c0 1.007-.36 1.855-1.079 2.546-.69.69-1.539 1.035-2.545 1.035a3.409 3.409 0 0 1-2.502-1.035c-.691-.691-1.036-1.539-1.036-2.546 0-1.006.345-1.855 1.036-2.545a3.41 3.41 0 0 1 2.502-1.036c1.006 0 1.855.346 2.545 1.036.719.69 1.079 1.539 1.079 2.545Zm10.577 16.782 9.448-28.99 9.491 28.99v-.043c.143.431.374.791.69 1.079.345.258.719.388 1.122.388.23 0 .431-.029.604-.086.201-.029.417-.072.647-.13 1.61-.518 2.214-1.438 1.812-2.761a2287.81 2287.81 0 0 0-4.918-14.927l-4.875-14.97c-.202-.374-.504-.748-.906-1.122-.374-.373-.763-.59-1.165-.647-.489-.057-.964-.1-1.424-.129a9.278 9.278 0 0 0-1.078-.086c-.259 0-.619.029-1.079.086-.46.029-.935.086-1.424.173-.489.057-.92.244-1.294.56a2.605 2.605 0 0 0-.733 1.165l-9.836 29.897c-.432 1.323.172 2.243 1.812 2.761h-.044c.23.058.446.101.647.13.231.057.461.086.691.086.431 0 .791-.13 1.078-.388.317-.288.561-.648.734-1.079v.043Zm11.691-6.946c.661-.661.992-1.452.992-2.372a3.1 3.1 0 0 0-.992-2.33 3.1 3.1 0 0 0-2.33-.992c-.92 0-1.697.331-2.329.992-.633.633-.949 1.409-.949 2.33 0 .92.316 1.711.949 2.372.632.633 1.409.95 2.329.95.921 0 1.697-.317 2.33-.95Z" fill="#000"/></svg>