<svg width="512" height="512" fill="none" xmlns="http://www.w3.org/2000/svg"><path d="M255.981 48.035c-71.18 0-135.349 42.77-162.588 108.422-27.24 65.648-12.146 141.214 38.186 191.457l110.607 110.492c7.649 7.642 20.003 7.642 27.652 0l110.608-110.492c50.332-50.243 65.362-125.809 38.123-191.457C391.33 90.806 327.161 48.035 255.981 48.035Zm.565 96.262c44.312 0 80.259 35.869 80.259 80.16s-35.947 80.215-80.259 80.215-80.197-35.924-80.197-80.215c0-44.291 35.885-80.16 80.197-80.16Z" fill="#E65050"/><path d="M256 31.977c-77.604 0-147.666 46.775-177.375 118.375-29.709 71.6-13.261 154.147 41.625 208.937l110.625 110.438c13.734 13.721 36.516 13.721 50.25 0L391.75 359.289a16.033 16.033 0 0 0 2.875-3.875c52.123-54.765 67.828-134.979 38.75-205.062C403.666 78.752 333.604 31.977 256 31.977Zm0 32.062c64.756 0 123.043 38.86 147.813 98.563 24.769 59.696 11.089 128.3-34.688 174L258.5 447.039c-1.564 1.568-3.436 1.568-5 0L142.875 336.602c-45.778-45.703-59.458-114.304-34.687-174 24.77-59.703 83.056-98.563 147.812-98.563Z" fill="#000"/><path d="M256.562 128.289c-52.968 0-96.25 43.231-96.25 96.188 0 52.953 43.283 96.25 96.25 96.25 52.968 0 96.25-43.297 96.25-96.25 0-52.957-43.281-96.188-96.25-96.188Zm0 32c35.656 0 64.188 28.559 64.188 64.188 0 35.625-28.531 64.187-64.188 64.187-35.656 0-64.187-28.562-64.187-64.187 0-35.629 28.532-64.188 64.187-64.188Z" fill="#000"/></svg>