<svg width="48" height="48" fill="none" xmlns="http://www.w3.org/2000/svg"><path d="M23.998 4.503A16.496 16.496 0 0 0 8.755 14.668a16.45 16.45 0 0 0 3.58 17.949l10.37 10.359a1.832 1.832 0 0 0 2.592 0l10.37-10.36a16.449 16.449 0 0 0 3.574-17.948A16.496 16.496 0 0 0 23.998 4.503Zm.053 9.025c4.154 0 7.524 3.362 7.524 7.515 0 4.152-3.37 7.52-7.524 7.52a7.519 7.519 0 0 1-7.518-7.52 7.514 7.514 0 0 1 7.518-7.515Z" fill="#E65050"/><path d="M24 2.998A18.011 18.011 0 0 0 7.371 14.096a17.96 17.96 0 0 0 3.902 19.587l10.372 10.354c1.287 1.286 3.423 1.286 4.71 0l10.372-10.354c.107-.106.198-.229.27-.363 4.886-5.134 6.358-12.654 3.632-19.224A18.011 18.011 0 0 0 24 2.998Zm0 3.006a14.99 14.99 0 0 1 13.858 9.24 14.942 14.942 0 0 1-3.252 16.312L24.233 41.91c-.146.147-.322.147-.468 0L13.395 31.556a14.942 14.942 0 0 1-3.252-16.312A14.99 14.99 0 0 1 24 6.004Z" fill="#000"/><path d="M24.053 12.027c-4.966 0-9.024 4.053-9.024 9.018 0 4.964 4.058 9.023 9.024 9.023 4.965 0 9.023-4.059 9.023-9.023 0-4.965-4.058-9.018-9.023-9.018Zm0 3a5.995 5.995 0 0 1 6.017 6.018 5.995 5.995 0 0 1-6.017 6.017 5.995 5.995 0 0 1-6.018-6.017 5.995 5.995 0 0 1 6.018-6.018Z" fill="#000"/></svg>